<svg viewBox="0 0 640 400" data-background-color="#ca3433" preserveAspectRatio="xMidYMid meet" height="400" width="640" xmlns="http://www.w3.org/2000/svg" xmlns:xlink="http://www.w3.org/1999/xlink"><rect width="640" height="400" x="0" y="0" opacity="1" fill="#ca3433" data-fill-palette-color="background" id="background"></rect><g id="tight-bounds" transform="matrix(1,0,0,1,160,20)"><svg viewBox="0 0 320 360" height="360" width="320"><g><svg></svg></g><g><svg viewBox="0 0 320 360" height="360" width="320"><g><path d="M20.961 227.22l3.726 4.658-1.863-6.056c-0.466-2.795-3.726 0.466-1.863 1.398M25.153 224.425c1.397 2.329 2.795 4.658 2.795 6.987 0 3.261 2.795 4.658 5.123 5.589-3.261-3.726-5.124-13.974-7.918-12.576M204.017 26.929c7.918 0 15.371-0.932 23.756 0.931 20.495 5.124 37.729 15.371 49.374 29.811l32.606 52.169c1.397 13.042 4.192 27.482 3.726 43.319 3.261 0 2.795-4.658 6.521-5.59-3.726 9.316-5.59 20.961-6.521 34.469-2.329-7.454 0-18.632 0.466-24.687-3.261 5.124-5.124 1.397-5.124-0.932 0.466-3.726-1.397-3.261-2.795-4.658-5.124-4.658-8.384-9.782-12.11-17.7 2.329-6.055 2.795-14.905-4.658-19.563-2.329-1.397-5.124-3.726-6.521-7.453-1.863-5.124-5.124-11.179-4.193-19.097 0.466-2.329-6.987 5.124-11.179 1.863-18.166-12.576-36.332-27.016-58.224-39.127-11.645 0-20.029-4.192-24.221-9.316-3.726-4.658-0.932-10.713 4.658-11.179 3.261 0 6.987-0.932 9.782 0.932 0.466-1.863 2.329-4.192 4.657-4.192M157.904 16.215l0.932 0.466c4.658 0.932 6.987 7.453 12.11 5.124 0 3.261 0.466 6.521-0.466 8.85-1.397 3.726-5.59 3.726-8.85 3.726-31.208-1.863-49.374 11.179-68.471 22.358-5.124 3.261-10.713 5.59-14.906 9.782-20.029 18.632-41.921 35.866-47.045 70.335l-4.192 38.195c-0.466 4.192-5.124 8.384-4.192 13.508l3.26 22.824c-3.261-3.261-5.124 0.932-4.192 2.795 0.466 1.397 2.329 6.055 5.124 1.863 3.726 6.987 7.453 20.495 12.576 26.55 15.837 18.632 36.332 35.4 53.101 52.169 4.192-0.932 7.453-0.932 8.384-3.727 1.397 2.795-1.397 5.59-3.726 6.056 7.453 4.658 15.837 8.85 27.016 9.781 14.44 0.932 27.948 3.261 40.524 6.522 6.521-1.863 13.042-2.795 20.029-3.261 2.329 0 3.726-3.726 6.521-4.658l0.466-4.658c2.795 4.192 2.329-1.397 0.466-4.192 3.261 2.795 4.192 5.124 5.589 6.987 0-1.397 3.726-6.521 3.727-0.466l0.931-6.055c1.397-0.932 1.863 5.124 3.261 0.931 1.397-4.192 4.192-0.932 6.987-2.329-0.932 1.863-0.466 5.59 2.794 3.261l3.727-3.261c2.329 5.59 6.055 3.261 7.918 2.329 20.495-13.042 40.99-28.413 60.553-43.784l-0.466 6.055 2.329-7.453c2.329 2.329 4.192 0.466 5.124-0.931 2.795-4.658 6.521-9.316 12.577-13.508-7.453 20.029-16.303 35.866-27.482 48.908l-4.658 5.59c0 3.261-0.932 7.453-4.658 7.918-1.863 0.466-5.59-0.932-8.384 1.863-1.397 1.863 3.261 5.59-0.466 2.795-3.261-2.329-6.521 0-10.248 0.932-2.795 0.932 1.863 3.726 2.795 5.589 0.932 1.863 1.863 3.726 1.398 6.056l-5.124-5.59c-6.055 3.261-9.782 9.316-14.906 13.974-2.329 1.863-1.397 5.124-1.397 7.918-3.261 0-6.987-0.932-8.85 0.932-1.397 1.863-0.932 4.658-0.932 7.453-4.658-0.466-5.124-7.453-9.315-6.056-4.192 0.932-8.85 1.397-12.577 3.727 2.795 5.59-4.658 2.329-3.726 3.26-6.987-4.192-13.042-7.453-20.495-4.658-15.837-5.124-35.4-2.795-49.84-0.931 0-2.329 0.466-4.658-0.466-5.124-0.932 2.329-3.726 1.397-3.26 1.397-8.85-6.055-17.7-9.782-27.016-14.905-8.384 0.932-16.303-3.261-18.632-5.59-6.521-6.055-13.974-2.795-20.029-4.192-13.042-3.261-17.7-16.769-19.098-26.084-0.932-4.658-4.658-6.521-6.055-6.056-6.055-19.563-15.371-37.263-22.824-55.429-1.863-4.658-1.397-9.316-1.397-14.44 2.329 0.932 4.658 0.466 4.192-2.794-2.329-15.371-7.918-27.016-13.974-38.195 3.261-15.837 3.726-34.469 11.179-48.443 6.521-12.576 18.632-19.098 27.016-29.811 2.795-3.726 2.795-8.85 5.59-12.11 9.316-9.316 18.632-19.098 28.879-27.482 4.658-3.726 10.247 0 17.234-1.397 2.329-8.384 11.645-15.837 20.495-13.508 3.726 0.932 11.179-8.85 13.508-9.782 3.726-1.397 1.863 3.726 1.863 6.987 8.85-6.987 20.961-10.713 32.14-14.906" fill="#ffffff" data-fill-palette-color="tertiary"></path></g><g transform="matrix(1,0,0,1,64,110.67073360570839)"><svg viewBox="0 0 192 138.65853278858322" height="138.65853278858322" width="192"><g><svg viewBox="0 0 192 138.65853278858322" height="138.65853278858322" width="192"><g><svg viewBox="0 0 192 138.65853278858322" height="138.65853278858322" width="192"><g transform="matrix(1,0,0,1,0,78.52800504496037)"><svg viewBox="0 0 192 60.130527743622835" height="60.130527743622835" width="192"><g><svg viewBox="0 0 192 60.130527743622835" height="60.130527743622835" width="192"><g><svg viewBox="0 0 192 38.42570722329031" height="38.42570722329031" width="192"><g transform="matrix(1,0,0,1,0,0)"><svg width="192" viewBox="0.3499999940395355 -35.20000076293945 182.0399932861328 36.43809509277344" height="38.42570722329031" data-palette-color="#ffffff"><path d="M17.55-31.25Q18.1-31.15 20-27.43 21.9-23.7 24.65-17.8L24.65-17.8 26.25-14.45Q27.3-15.6 28.2-17.13 29.1-18.65 30.45-21.25L30.45-21.25Q32-24.2 32.6-25.05L32.6-25.05Q35-28.7 37.8-32.8L37.8-32.8Q38.15-33.35 39.05-33.55L39.05-33.55Q39.2-33.6 39.55-33.6L39.55-33.6Q40.75-33.6 42.23-32.6 43.7-31.6 44.15-30.55L44.15-30.55Q44.25-30.35 44.25-29.8L44.25-29.8Q44.25-29.3 44.2-29.05L44.2-29.05Q44.1-28.6 43.98-27.93 43.85-27.25 43.75-26.35L43.75-26.35Q42.15-14.15 41.45-8.05L41.45-8.05Q41.25-6.65 41.25-4.9L41.25-4.9 41.15-3.3Q41.1-2.8 41.1-2.15 41.1-1.5 40.95-1.25 40.8-1 40.4-1L40.4-1Q40.1-1 39.5-1.15L39.5-1.15Q37.9-1.5 37.05-2.43 36.2-3.35 36.1-5L36.1-5Q36.05-5.85 36.05-7.65L36.05-7.65Q36.05-9.5 36.15-13.3L36.15-13.3 36.2-16.05 36.3-20Q35.85-19.6 34.02-16.88 32.2-14.15 30.45-11.2 28.7-8.25 28.15-6.65L28.15-6.65Q27.65-5.4 27.18-4.8 26.7-4.2 26.05-4.2L26.05-4.2Q25.45-4.2 24.5-4.75L24.5-4.75Q21.8-6.4 21.2-9.3L21.2-9.3Q20.25-13.75 18.85-18.55L18.85-18.55Q18.6-19.45 17.88-21 17.15-22.55 16.95-22.95L16.95-22.95 16.3-24.25Q9-14.55 6.4-6.45L6.4-6.45Q5.9-4.75 5.45-4.03 5-3.3 4.4-3.3L4.4-3.3Q3.45-3.3 1.7-5L1.7-5Q0.35-6.2 0.35-7.7L0.35-7.7Q0.35-8.5 0.65-9.3L0.65-9.3Q2.75-15.5 6.9-21.05L6.9-21.05 8.45-23.1Q11.6-27.25 13.2-29.6L13.2-29.6Q14.4-31.35 16.4-31.35L16.4-31.35Q16.75-31.35 17.55-31.25L17.55-31.25ZM60.2-3.35Q58.65-2.4 56.65-2.4L56.65-2.4Q54.45-2.4 52.42-3.53 50.4-4.65 49.2-6.75 48-8.85 48.2-11.55L48.2-11.55 48.45-12.75Q48.75-14.55 48.95-15.4L48.95-15.4Q49.4-17.25 50.75-18 52.1-18.75 54.35-19.2L54.35-19.2Q55.8-19.5 57.2-19.5L57.2-19.5Q61.6-19.5 64.6-16.55L64.6-16.55Q66.2-14.95 66.2-12.65L66.2-12.65Q66.2-10.4 64.55-7.8L64.55-7.8Q62.65-4.85 60.2-3.35L60.2-3.35ZM56-16.95Q55.2-15 54.3-12.1L54.3-12.1 53.8-10.6 54.15-10.45Q54.15-10.1 54.17-9.38 54.2-8.65 54.35-8.15L54.35-8.15Q54.9-6.6 55.6-6.25L55.6-6.25Q55.9-6.1 56.47-6.4 57.05-6.7 57.5-7.1L57.5-7.1Q58.2-7.7 59.75-9.6L59.75-9.6Q60.9-10.9 60.9-12.7L60.9-12.7Q60.9-14.25 60.02-15.5 59.15-16.75 57.6-17.2L57.6-17.2Q57.45-17.25 57.05-17.25L57.05-17.25Q56.1-17.25 56-16.95L56-16.95ZM75.64-22.45Q75.64-22.2 75.52-21.28 75.39-20.35 75.39-19.8L75.39-19.8Q75.39-19.4 75.5-19.3L75.5-19.3 76.94-20.7Q77.75-21.6 78.34-22.1L78.34-22.1Q79.64-23.3 81-23.3L81-23.3Q82.09-23.3 82.64-22.45L82.64-22.45Q82.94-21.95 82.94-21.3L82.94-21.3Q82.94-20.8 82.75-20.55L82.75-20.55Q82-19.4 80.05-17.1L80.05-17.1Q79.3-16.3 79.3-15.55L79.3-15.55Q79.3-14.85 80-14L80-14Q80.59-13.3 81.69-11.9L81.69-11.9Q83.84-9.15 85.52-7.48 87.19-5.8 89.39-4.7L89.39-4.7Q89.64-4.6 89.8-4.23 89.94-3.85 89.89-3.65L89.89-3.65Q89.84-3.4 89.5-3.15 89.14-2.9 88.89-2.95L88.89-2.95Q88.14-3.15 87.64-3.2L87.64-3.2Q85.05-3.7 83.94-4.45L83.94-4.45Q82.14-5.7 78.84-8.8L78.84-8.8Q76.84-10.65 76.8-10.7L76.8-10.7 75.89-11.55Q74.84-12.6 74.84-12.6L74.84-12.6Q74.75-12.35 74.75-11.85L74.75-11.85Q74.75-11.4 74.82-10.88 74.89-10.35 74.84-10.15L74.84-10.15Q74.55-4.55 74.44-1.95L74.44-1.95Q74.34-0.3 73.67 0.55 73 1.4 71.8 1.2L71.8 1.2Q71.39 1.15 70.92 0.8 70.44 0.45 70.34 0.1L70.34 0.1Q69.8-2.1 69.8-4.2L69.8-4.2Q69.8-10.25 69.94-16.25L69.94-16.25 70.44-32.55Q70.5-35.2 73.19-35.2L73.19-35.2Q75.05-35.2 75.89-34.5 76.75-33.8 76.64-32.3L76.64-32.3 76.14-27.2Q75.94-25.45 75.64-22.45L75.64-22.45ZM95.64-21Q96.89-20.65 97.42-20.15 97.94-19.65 97.94-18.8L97.94-18.8Q97.94-18.4 97.79-17.75L97.79-17.75Q97.24-15.5 97.19-13.25L97.19-13.25Q97.14-10.7 97.99-8.55L97.99-8.55Q98.29-7.8 98.57-7.48 98.84-7.15 99.24-7.15L99.24-7.15Q99.74-7.15 100.54-8.05L100.54-8.05Q102.39-10.25 103.29-12.45 104.19-14.65 104.39-17L104.39-17Q104.54-18.55 104.89-18.95L104.89-18.95Q105.09-19.15 105.54-19.2 105.99-19.25 106.84-19.25L106.84-19.25Q108.19-19.15 108.72-19 109.24-18.85 109.44-18.5 109.64-18.15 109.64-17.35L109.64-17.35 109.59-15Q109.59-14.25 109.54-12.8L109.54-12.8Q109.39-8.3 109.29-6.1L109.29-6.1Q109.24-4.35 108.24-1.7L108.24-1.7Q108.14-1.55 107.69-1.28 107.24-1 106.89-0.95L106.89-0.95Q106.79-0.95 106.47-1.28 106.14-1.6 105.99-1.85L105.99-1.85Q105.64-2.65 105.19-4L105.19-4 104.79-4.95 104.69-5.25 104.54-5.1 103.74-4.6Q103.14-4.1 102.44-3.8L102.44-3.8Q101.29-3.1 99.69-3.1L99.69-3.1Q97.69-3.1 95.89-4.23 94.09-5.35 93.04-7.3L93.04-7.3Q91.34-10.3 91.34-14.25L91.34-14.25Q91.34-16.25 91.89-19.3L91.89-19.3Q91.99-20.05 92.84-20.6L92.84-20.6Q93.59-21.15 94.59-21.15L94.59-21.15Q95.09-21.15 95.64-21L95.64-21ZM122.69-21.2Q122.84-20.7 122.74-19.65L122.74-19.65 122.14-13.75Q122.39-13.95 122.89-15.18 123.39-16.4 123.84-17.18 124.29-17.95 124.54-18.2L124.54-18.2Q126.89-20.45 129.84-20.9 132.79-21.35 136.34-21.3L136.34-21.3Q136.69-21.3 137.12-21.03 137.54-20.75 137.54-20.58 137.54-20.4 137.24-20.03 136.94-19.65 136.69-19.55L136.69-19.55Q133.69-18.55 131.41-17.25 129.14-15.95 127.49-13.85L127.49-13.85Q123.59-8.9 122.99-3.65L122.99-3.65Q122.84-2.25 122.14-1.78 121.44-1.3 120.19-1.3L120.19-1.3Q118.79-1.3 117.69-2.5 116.59-3.7 116.59-5.15L116.59-5.15Q116.64-10.45 116.64-21.05L116.64-21.05Q116.64-22.5 117.29-23.08 117.94-23.65 119.64-23.65L119.64-23.65Q120.89-23.65 121.77-22.95 122.64-22.25 122.69-21.2L122.69-21.2ZM147.19-7.8Q146.69-7.5 145.74-7.5L145.74-7.5Q145.39-7.5 144.89-7.55 144.39-7.6 144.04-7.55L144.04-7.55Q144.44-5.9 145.94-4.88 147.44-3.85 149.29-3.85L149.29-3.85Q150.89-3.85 152.14-4.55L152.14-4.55Q153.99-5.5 155.34-6.8L155.34-6.8Q156.29-7.75 157.14-7.75L157.14-7.75Q157.69-7.75 158.09-7.2L158.09-7.2Q158.49-6.55 158.49-5.6L158.49-5.6Q158.49-4.6 158.09-4.05L158.09-4.05Q156.79-2.05 154.71-1.3 152.64-0.55 149.89-0.55L149.89-0.55Q147.04-0.55 144.39-1.8 141.74-3.05 139.86-5.23 137.99-7.4 137.39-10.05L137.39-10.05Q136.99-11.6 136.99-13.1L136.99-13.1Q136.99-15.45 138.31-16.9 139.64-18.35 142.59-19.65L142.59-19.65Q145.29-20.8 147.59-20.8L147.59-20.8Q149.24-20.8 150.79-20.3L150.79-20.3Q155.59-18.8 155.59-16.2L155.59-16.2Q155.59-14.55 153.64-12.2L153.64-12.2Q152.69-11.1 151.39-10.25 150.09-9.4 148.86-8.72 147.64-8.05 147.19-7.8L147.19-7.8ZM149.29-17.05Q149.24-17.3 148.91-17.48 148.59-17.65 148.54-17.7L148.54-17.7Q147.19-17.8 145.79-16.93 144.39-16.05 143.46-14.7 142.54-13.35 142.54-12.1L142.54-12.1 142.59-11.7Q142.64-11.5 143.11-11.2 143.59-10.9 143.69-11L143.69-11Q147.24-13.65 149.04-15.25L149.04-15.25Q149.34-15.55 149.34-16.35L149.34-16.35Q149.34-16.85 149.29-17.05L149.29-17.05ZM169.49-18.85Q169.49-18.55 169.39-18.07 169.29-17.6 169.34-17.45L169.34-17.45Q172.79-18.2 175.19-18.2L175.19-18.2Q178.94-18.2 180.84-14.6L180.84-14.6Q182.39-11.55 182.39-7.85L182.39-7.85Q182.39-6.9 182.19-5.1L182.19-5.1Q182.04-3.9 181.24-3.18 180.44-2.45 179.34-2.45L179.34-2.45Q178.19-2.45 177.71-2.88 177.24-3.3 177.16-3.85 177.09-4.4 177.09-5.6L177.09-5.6 177.04-6.65Q176.94-9.65 176.64-11.85L176.64-11.85Q176.49-12.75 175.96-13.13 175.44-13.5 174.59-13.5L174.59-13.5Q173.79-13.5 172.69-13.25L172.69-13.25Q170.99-12.8 170.41-12.55 169.84-12.3 168.74-11.5L168.74-11.5Q168.39-11.25 168.24-10.5 168.09-9.75 168.09-9.65L168.09-9.65Q167.44-6.45 166.69-2L166.69-2Q166.64-1.8 166.49-1.05 166.34-0.3 165.91 0.03 165.49 0.35 164.69 0.25L164.69 0.25Q161.54-0.15 161.49-2.4L161.49-2.4Q161.44-5.3 161.94-9.25L161.94-9.25Q162.29-12.1 162.59-13.85L162.59-13.85Q162.69-14.65 162.86-15.8 163.04-16.95 163.19-18.45L163.19-18.45Q163.34-19.6 163.49-20.15 163.64-20.7 164.19-21.08 164.74-21.45 165.89-21.45L165.89-21.45Q167.34-21.45 168.29-20.8 169.24-20.15 169.49-18.95L169.49-18.95 169.49-18.85Z" opacity="1" transform="matrix(1,0,0,1,0,0)" fill="#ffffff" class="undefined-text-0" data-fill-palette-color="primary" id="text-0"></path></svg></g></svg></g><g transform="matrix(1,0,0,1,0,44.032940124141724)"><svg viewBox="0 0 192 16.09758761948111" height="16.09758761948111" width="192"><g transform="matrix(1,0,0,1,0,0)"><svg width="192" viewBox="0.9800000190734863 -33.88999938964844 536.3200073242188 44.970001220703125" height="16.09758761948111" data-palette-color="#ffffff"><path d="M17.38-32.37L17.82-32.23 27.59-6.45Q28.47-4.15 29-2.93L29-2.93Q29.3-2.2 30.52-1.73 31.74-1.27 32.32-1.27L32.32-1.27Q32.52-1.27 32.52-0.34L32.52-0.34Q32.52-0.15 32.42 0.15L32.42 0.15Q27.54-0.1 27.05-0.1L27.05-0.1Q27-0.1 21.39 0.15L21.39 0.15Q21.19-0.05 21.22-0.66 21.24-1.27 21.44-1.27L21.44-1.27Q22.02-1.27 22.9-1.51 23.78-1.76 23.93-2.15L23.93-2.15Q24.02-2.54 24.02-2.93L24.02-2.93Q24.02-3.56 23.85-4.42 23.68-5.27 23.54-5.76L23.54-5.76 23.34-6.3 21.34-11.82Q21.19-12.01 21.04-12.01L21.04-12.01Q19.14-12.16 17.33-12.16L17.33-12.16Q14.79-12.16 11.13-11.91L11.13-11.91 10.89-11.77 8.79-6.4Q7.96-3.96 7.96-3.03L7.96-3.03Q7.96-2.34 8.35-2.05L8.35-2.05Q8.79-1.71 9.77-1.49 10.74-1.27 11.18-1.27L11.18-1.27Q11.33-1.27 11.35-0.68 11.38-0.1 11.28 0.15L11.28 0.15Q6.4-0.1 6.25-0.1L6.25-0.1Q5.27-0.1 4.54-0.05 3.81 0 2.91 0.05 2 0.1 1.17 0.15L1.17 0.15Q0.98-0.05 0.98-0.59L0.98-0.59Q0.98-1.27 1.17-1.27L1.17-1.27Q1.76-1.27 2.69-1.51 3.61-1.76 3.96-2.2L3.96-2.2Q4.98-3.52 6.25-6.79L6.25-6.79 14.75-28.61Q14.84-28.86 15.01-29.39 15.19-29.93 15.28-30.2 15.38-30.47 15.58-30.88 15.77-31.3 15.92-31.49 16.06-31.69 16.28-31.93 16.5-32.18 16.77-32.28 17.04-32.37 17.38-32.37L17.38-32.37ZM12.16-14.6L12.16-14.6Q14.7-14.5 15.63-14.5L15.63-14.5Q17.77-14.5 20.07-14.65L20.07-14.65 20.21-14.89 16.26-25.68 12.06-14.79Q12.06-14.6 12.16-14.6ZM46.72-32.13L52.58-32.03Q54.05-32.03 56.05-32.13 58.05-32.23 59.47-32.23L59.47-32.23Q61.08-32.23 62.71-31.74 64.35-31.25 65.89-30.27 67.43-29.3 68.4-27.49 69.38-25.68 69.38-23.29L69.38-23.29Q69.38-21.88 68.77-20.24 68.16-18.6 66.99-17.07 65.82-15.53 63.84-14.53 61.86-13.53 59.42-13.53L59.42-13.53Q56.68-13.53 55.66-14.89L55.66-14.89Q55.37-15.23 55.51-16.02L55.51-16.02Q55.56-16.21 55.66-16.16L55.66-16.16Q57.12-15.63 58.93-15.63L58.93-15.63Q61.37-15.63 63.13-17.68 64.89-19.73 64.89-22.56L64.89-22.56Q64.89-26.03 63.37-28.05 61.86-30.08 58.69-30.08L58.69-30.08Q56.49-30.08 55.27-29.74L55.27-29.74Q55.02-29.69 54.93-29.37 54.83-29.05 54.76-27.88 54.68-26.71 54.68-24.37L54.68-24.37 54.68-6.93Q54.68-3.66 55.07-2.69L55.07-2.69Q55.32-2.05 56.81-1.66 58.3-1.27 58.93-1.27L58.93-1.27Q59.13-1.27 59.13-0.59L59.13-0.59Q59.13-0.15 59.03 0.15L59.03 0.15Q54.15-0.1 52.68-0.1L52.68-0.1 46.72 0.15Q46.58 0 46.58-0.73L46.58-0.73Q46.58-1.37 46.72-1.37L46.72-1.37Q47.41-1.37 48.63-1.66 49.85-1.95 50.09-2.39L50.09-2.39Q50.43-2.98 50.43-6.98L50.43-6.98 50.43-25.44Q50.43-28.32 50.09-29.64L50.09-29.64Q49.95-30.03 48.65-30.37 47.36-30.71 46.72-30.71L46.72-30.71Q46.53-30.71 46.53-31.3L46.53-31.3Q46.53-31.93 46.72-32.13L46.72-32.13ZM78.02-3.15Q78.85-2.44 80.17-2.44 81.49-2.44 82.71-3.25 83.93-4.05 83.93-4.88L83.93-4.88 83.93-9.91Q83.54-9.72 82.02-9.23 80.51-8.74 79.66-8.37 78.8-8.01 78-7.15 77.19-6.3 77.19-5.18L77.19-5.18Q77.19-3.86 78.02-3.15ZM82.61-21.29L82.61-21.29Q85.3-21.29 86.47-20 87.64-18.7 87.64-15.82L87.64-15.82 87.64-4.54Q87.64-3.52 88.18-2.83 88.71-2.15 89.64-2.15L89.64-2.15Q90.32-2.15 91.35-2.83L91.35-2.83Q91.55-2.83 91.55-2.44L91.55-2.44Q91.55-1.81 91.3-1.42L91.3-1.42Q89.3 0.29 87.88 0.29L87.88 0.29Q86.76 0.29 85.73-0.63 84.71-1.56 84.32-2.59L84.32-2.59Q84.27-2.59 83.95-2.27 83.64-1.95 83.1-1.54 82.56-1.12 81.85-0.68 81.14-0.24 80.19 0.05 79.24 0.34 78.26 0.34L78.26 0.34Q76.02 0.34 74.55-0.85 73.09-2.05 73.09-4.44L73.09-4.44Q73.09-5.52 73.63-6.47 74.16-7.42 74.89-8.03 75.63-8.64 76.9-9.28 78.17-9.91 79.07-10.23 79.97-10.55 81.44-11.04 82.9-11.52 83.49-11.77L83.49-11.77Q83.93-11.91 83.93-12.5L83.93-12.5 83.93-16.16Q83.93-17.72 82.95-18.58 81.97-19.43 80.61-19.43L80.61-19.43Q79.14-19.43 78.17-18.43 77.19-17.43 77.19-15.82L77.19-15.82Q77.19-14.11 75.19-14.11L75.19-14.11Q73.82-14.11 73.28-15.04L73.28-15.04Q73.28-17.14 76.36-19.21 79.44-21.29 82.61-21.29ZM96.08-5.66L96.08-5.66 96.08-26.81Q96.08-28.47 95.79-29.93L95.79-29.93Q95.55-30.71 93.3-30.71L93.3-30.71 92.86-30.71Q92.57-30.71 92.57-31.25L92.57-31.25Q92.57-32.03 92.86-32.03L92.86-32.03Q94.33-32.18 95.57-32.42 96.82-32.67 97.52-32.91 98.23-33.15 98.72-33.37 99.21-33.59 99.45-33.74L99.45-33.74 99.65-33.89 99.75-33.89Q99.94-33.89 100.14-33.62 100.33-33.35 100.38-33.11L100.38-33.11Q99.84-31.54 99.84-28.86L99.84-28.86 99.84-6.59Q99.84-3.76 100.23-2.25L100.23-2.25Q100.33-1.9 101.5-1.59 102.68-1.27 103.16-1.27L103.16-1.27Q103.31-1.27 103.36-0.68 103.41-0.1 103.31 0.15L103.31 0.15Q98.43-0.1 98.09-0.1L98.09-0.1Q97.79-0.1 92.76 0.15L92.76 0.15Q92.57-0.05 92.57-0.66 92.57-1.27 92.76-1.27L92.76-1.27Q93.35-1.27 94.5-1.59 95.64-1.9 95.74-2.25L95.74-2.25Q96.08-3.66 96.08-5.66ZM110.93-3.15Q111.76-2.44 113.07-2.44 114.39-2.44 115.61-3.25 116.83-4.05 116.83-4.88L116.83-4.88 116.83-9.91Q116.44-9.72 114.93-9.23 113.42-8.74 112.56-8.37 111.71-8.01 110.9-7.15 110.09-6.3 110.09-5.18L110.09-5.18Q110.09-3.86 110.93-3.15ZM115.51-21.29L115.51-21.29Q118.2-21.29 119.37-20 120.54-18.7 120.54-15.82L120.54-15.82 120.54-4.54Q120.54-3.52 121.08-2.83 121.62-2.15 122.55-2.15L122.55-2.15Q123.23-2.15 124.26-2.83L124.26-2.83Q124.45-2.83 124.45-2.44L124.45-2.44Q124.45-1.81 124.21-1.42L124.21-1.42Q122.2 0.29 120.79 0.29L120.79 0.29Q119.67 0.29 118.64-0.63 117.61-1.56 117.22-2.59L117.22-2.59Q117.18-2.59 116.86-2.27 116.54-1.95 116-1.54 115.47-1.12 114.76-0.68 114.05-0.24 113.1 0.05 112.15 0.34 111.17 0.34L111.17 0.34Q108.92 0.34 107.46-0.85 105.99-2.05 105.99-4.44L105.99-4.44Q105.99-5.52 106.53-6.47 107.07-7.42 107.8-8.03 108.53-8.64 109.8-9.28 111.07-9.91 111.97-10.23 112.88-10.55 114.34-11.04 115.81-11.52 116.39-11.77L116.39-11.77Q116.83-11.91 116.83-12.5L116.83-12.5 116.83-16.16Q116.83-17.72 115.86-18.58 114.88-19.43 113.51-19.43L113.51-19.43Q112.05-19.43 111.07-18.43 110.09-17.43 110.09-15.82L110.09-15.82Q110.09-14.11 108.09-14.11L108.09-14.11Q106.73-14.11 106.19-15.04L106.19-15.04Q106.19-17.14 109.26-19.21 112.34-21.29 115.51-21.29ZM136.02-21.29L136.02-21.29Q141.39-21.29 143.44-18.8L143.44-18.8Q143.44-15.53 141.64-15.53L141.64-15.53Q140.81-15.53 140.37-15.89 139.93-16.26 139.24-17.24L139.24-17.24Q137.73-19.48 135.63-19.48L135.63-19.48Q133.63-19.48 131.99-17.58 130.36-15.67 130.36-11.91L130.36-11.91Q130.36-8.01 132.28-5.42 134.21-2.83 137.63-2.83L137.63-2.83Q138.66-2.83 139.58-3.03 140.51-3.22 141.17-3.49 141.83-3.76 142.29-4.03 142.76-4.3 143.1-4.54L143.1-4.54 143.44-4.79Q143.74-4.79 143.74-4.15L143.74-4.15Q143.74-3.76 143.44-3.27L143.44-3.27Q142.47-1.9 140.56-0.81 138.66 0.29 136.41 0.29L136.41 0.29Q132.36 0.29 129.45-2.76 126.55-5.81 126.55-10.21L126.55-10.21Q126.55-14.7 128.99-17.99 131.43-21.29 136.02-21.29ZM155.5-19.48L155.5-19.48Q152.96-19.48 151.62-17.31 150.28-15.14 150.28-13.72L150.28-13.72Q150.28-13.38 150.57-13.38L150.57-13.38 160.09-13.38Q160.33-13.38 160.33-13.87L160.33-13.87Q160.33-15.43 159.02-17.46 157.7-19.48 155.5-19.48ZM155.99-21.29L155.99-21.29Q158.23-21.29 159.94-20.43 161.65-19.58 162.56-18.24 163.46-16.89 163.87-15.5 164.29-14.11 164.29-12.74L164.29-12.74Q164.29-11.77 164-11.55 163.7-11.33 162.87-11.33L162.87-11.33 150.57-11.33Q150.18-11.33 150.18-11.08L150.18-11.08Q150.18-8.01 152.03-5.42 153.89-2.83 157.4-2.83L157.4-2.83Q158.43-2.83 159.36-3.03 160.29-3.22 160.94-3.49 161.6-3.76 162.07-4.03 162.53-4.3 162.87-4.54L162.87-4.54 163.21-4.79Q163.51-4.79 163.51-4.15L163.51-4.15Q163.51-3.76 163.21-3.27L163.21-3.27Q162.24-1.9 160.33-0.81 158.43 0.29 156.18 0.29L156.18 0.29Q152.13 0.29 149.23-2.76 146.32-5.81 146.32-10.21L146.32-10.21Q146.32-15.33 149.08-18.31 151.84-21.29 155.99-21.29ZM184.65-32.03L184.65-32.03Q186.84-32.03 192.26-32.23 197.68-32.42 200.42-32.42L200.42-32.42Q200.61-31.01 201.17-28.69 201.74-26.37 201.83-25.78L201.83-25.78Q201.59-25.54 200.95-25.54 200.32-25.54 200.27-25.88L200.27-25.88Q199.54-28.56 198.22-29.32 196.9-30.08 194.61-30.08L194.61-30.08 191.33-30.08Q187.14-30.08 187.04-29.44L187.04-29.44Q186.79-28.27 186.79-25.34L186.79-25.34 186.79-17.38Q186.79-17.09 188.84-17.09L188.84-17.09 191.43-17.09Q194.7-17.09 195.44-17.55 196.17-18.02 196.71-20.21L196.71-20.21Q196.75-20.51 196.8-20.65L196.8-20.65Q196.85-21 197.54-21L197.54-21Q198.12-21 198.37-20.75L198.37-20.75 198.37-11.28Q198.17-11.08 197.58-11.08L197.58-11.08Q196.95-11.08 196.8-11.47L196.8-11.47Q196.46-12.79 196.22-13.45 195.97-14.11 195.85-14.23 195.73-14.36 195.44-14.55L195.44-14.55Q194.8-14.94 190.26-14.94L190.26-14.94Q186.79-14.94 186.79-14.5L186.79-14.5 186.79-6.79Q186.79-3.96 187.23-2.25L187.23-2.25Q187.33-1.9 188.6-1.59 189.87-1.27 190.36-1.27L190.36-1.27Q190.55-1.27 190.55-0.54L190.55-0.54Q190.55-0.15 190.46 0.15L190.46 0.15Q185.57-0.1 184.79-0.1L184.79-0.1Q184.55-0.1 178.93 0.15L178.93 0.15Q178.74-0.05 178.74-0.59L178.74-0.59Q178.74-1.27 178.93-1.27L178.93-1.27Q179.57-1.27 180.81-1.56 182.06-1.86 182.2-2.25L182.2-2.25Q182.55-3.56 182.55-6.64L182.55-6.64 182.55-25.44Q182.55-28.32 182.2-29.64L182.2-29.64Q182.06-30.03 180.76-30.37 179.47-30.71 178.83-30.71L178.83-30.71Q178.64-30.71 178.64-31.3L178.64-31.3Q178.64-31.93 178.83-32.13L178.83-32.13Q181.37-32.03 184.65-32.03ZM215.45-19.43L215.45-19.43Q212.87-19.43 211.23-17.07 209.59-14.7 209.59-11.28L209.59-11.28Q209.59-7.28 211.67-4.42 213.74-1.56 216.53-1.56L216.53-1.56Q219.12-1.56 220.78-4 222.44-6.45 222.44-9.86L222.44-9.86Q222.44-13.82 220.34-16.63 218.24-19.43 215.45-19.43ZM215.99-21.34L215.99-21.34Q220.39-21.34 223.51-18.16 226.64-14.99 226.64-10.55L226.64-10.55Q226.64-6.05 223.58-2.86 220.53 0.34 216.09 0.34 211.64 0.34 208.52-2.86 205.39-6.05 205.39-10.55L205.39-10.55Q205.39-15.09 208.42-18.21 211.45-21.34 215.99-21.34ZM242.79-21.34L242.79-21.34Q245.68-21.34 246.6-19.92L246.6-19.92Q246.6-18.21 246.07-17.43 245.53-16.65 244.75-16.65L244.75-16.65Q243.87-16.65 243.14-17.48 242.4-18.31 241.13-18.31L241.13-18.31Q239.62-18.31 238.5-16.89 237.37-15.48 237.37-13.92L237.37-13.92 237.37-6.59Q237.37-3.76 237.77-2.25L237.77-2.25Q237.86-1.9 239.06-1.59 240.26-1.27 240.74-1.27L240.74-1.27Q240.89-1.27 240.94-0.68 240.99-0.1 240.89 0.15L240.89 0.15Q236.01-0.1 235.62-0.1L235.62-0.1Q235.32-0.1 230.29 0.15L230.29 0.15Q230.1-0.05 230.1-0.66 230.1-1.27 230.29-1.27L230.29-1.27Q230.88-1.27 232.03-1.59 233.18-1.9 233.27-2.25L233.27-2.25Q233.62-3.66 233.62-5.66L233.62-5.66 233.62-14.89Q233.62-16.8 232.93-17.53L232.93-17.53Q232.44-18.12 231.74-18.33 231.03-18.55 230.56-18.55 230.1-18.55 230.1-18.65L230.1-18.65Q230.1-19.82 230.39-19.87L230.39-19.87Q235.57-20.65 237.13-21.14L237.13-21.14Q237.18-21.14 237.28-21.17 237.37-21.19 237.37-21.19L237.37-21.19Q237.57-21.19 237.62-20.78 237.67-20.36 237.62-20.17L237.62-20.17 237.33-17.72Q238.2-19.04 239.74-20.19 241.28-21.34 242.79-21.34ZM265.01-32.03L265.01-32.03Q265.59-32.03 271.45-32.32L271.45-32.32Q271.55-32.13 271.53-31.57 271.5-31.01 271.35-31.01L271.35-31.01Q270.52-31.01 269.47-30.59 268.42-30.18 268.42-29.35L268.42-29.35Q268.42-28.81 268.96-27.88L268.96-27.88 274.43-17.53Q274.67-17.29 274.92-17.63L274.92-17.63Q281.56-27.69 281.56-29.39L281.56-29.39Q281.56-29.93 280.58-30.47 279.61-31.01 278.19-31.01L278.19-31.01Q277.99-31.01 277.99-31.57 277.99-32.13 278.19-32.32L278.19-32.32Q283.61-32.03 283.95-32.03L283.95-32.03Q285.47-32.03 287.08-32.18 288.69-32.32 289.13-32.32L289.13-32.32Q289.23-32.03 289.23-31.59L289.23-31.59Q289.23-31.01 289.03-31.01L289.03-31.01Q288.44-31.01 286.98-30.57 285.51-30.13 285.03-29.49L285.03-29.49Q283.17-26.61 279.63-20.75 276.09-14.89 276.09-14.21L276.09-14.21 276.09-6.79Q276.09-3.76 276.48-2.25L276.48-2.25Q276.58-1.9 277.8-1.54 279.02-1.17 279.46-1.17L279.46-1.17Q279.66-1.17 279.66-0.54L279.66-0.54Q279.66-0.15 279.56 0.15L279.56 0.15Q274.67-0.1 274.09-0.1L274.09-0.1Q273.94-0.1 268.33 0.15L268.33 0.15Q268.13-0.05 268.13-0.54L268.13-0.54Q268.13-1.17 268.33-1.17L268.33-1.17Q268.91-1.17 270.11-1.51 271.31-1.86 271.45-2.25L271.45-2.25Q271.84-3.76 271.84-6.93L271.84-6.93 271.84-13.04Q271.84-13.72 270.79-15.75 269.74-17.77 264.71-26.81L264.71-26.81Q263.93-28.27 263.52-28.83 263.1-29.39 262.32-29.93L262.32-29.93Q261.78-30.32 260.71-30.66 259.64-31.01 259.15-31.01L259.15-31.01Q258.95-31.01 258.95-31.54L258.95-31.54Q258.95-32.13 259.15-32.32L259.15-32.32Q259.93-32.28 261.78-32.15 263.64-32.03 265.01-32.03ZM298.26-19.43L298.26-19.43Q295.67-19.43 294.03-17.07 292.4-14.7 292.4-11.28L292.4-11.28Q292.4-7.28 294.47-4.42 296.55-1.56 299.33-1.56L299.33-1.56Q301.92-1.56 303.58-4 305.24-6.45 305.24-9.86L305.24-9.86Q305.24-13.82 303.14-16.63 301.04-19.43 298.26-19.43ZM298.79-21.34L298.79-21.34Q303.19-21.34 306.31-18.16 309.44-14.99 309.44-10.55L309.44-10.55Q309.44-6.05 306.39-2.86 303.33 0.34 298.89 0.34 294.45 0.34 291.32-2.86 288.2-6.05 288.2-10.55L288.2-10.55Q288.2-15.09 291.22-18.21 294.25-21.34 298.79-21.34ZM332.53-16.65L332.53-16.65 332.53-6.88Q332.53-4.79 332.87-3.17L332.87-3.17Q332.97-2.83 333.41-2.64 333.85-2.44 334.34-2.39 334.83-2.34 335.31-2.34L335.31-2.34 335.75-2.29Q335.9-2.25 335.9-1.76L335.9-1.76Q335.9-1.61 335.78-1.29 335.66-0.98 335.51-0.98L335.51-0.98Q334.78-0.93 333.87-0.78 332.97-0.63 332.19-0.44 331.41-0.24 330.72-0.05 330.04 0.15 329.65 0.29L329.65 0.29 329.21 0.39Q328.82 0.39 328.82-0.39L328.82-0.39 328.82-2.88 328.72-3.13Q325.5 0.34 322.33 0.34L322.33 0.34Q320.52 0.34 319.23-0.56 317.93-1.46 317.32-2.95 316.71-4.44 316.47-5.83 316.22-7.23 316.22-8.74L316.22-8.74 316.22-14.89Q316.22-16.8 315.54-17.53L315.54-17.53Q315.05-18.12 314.34-18.33 313.63-18.55 313.17-18.55 312.71-18.55 312.71-18.65L312.71-18.65Q312.71-19.82 313-19.87L313-19.87Q318.18-20.65 319.74-21.14L319.74-21.14Q319.79-21.14 319.88-21.17 319.98-21.19 319.98-21.19L319.98-21.19Q320.18-21.19 320.23-20.78 320.28-20.36 320.23-20.17L320.23-20.17Q319.93-17.82 319.93-16.55L319.93-16.55 319.93-9.96Q319.93-6.2 321.06-4.42 322.18-2.64 324.72-2.64L324.72-2.64Q326.18-2.64 327.5-3.78 328.82-4.93 328.82-5.76L328.82-5.76 328.82-14.89Q328.82-16.8 328.14-17.53L328.14-17.53Q327.65-18.12 326.94-18.33 326.23-18.55 325.77-18.55 325.3-18.55 325.3-18.65L325.3-18.65Q325.3-19.82 325.6-19.87L325.6-19.87Q330.77-20.65 332.34-21.14L332.34-21.14Q332.38-21.14 332.48-21.17 332.58-21.19 332.58-21.19L332.58-21.19Q332.78-21.19 332.82-20.78 332.87-20.36 332.82-20.17L332.82-20.17Q332.53-17.82 332.53-16.65ZM350.84-21.34L350.84-21.34Q353.72-21.34 354.65-19.92L354.65-19.92Q354.65-18.21 354.11-17.43 353.57-16.65 352.79-16.65L352.79-16.65Q351.91-16.65 351.18-17.48 350.45-18.31 349.18-18.31L349.18-18.31Q347.67-18.31 346.54-16.89 345.42-15.48 345.42-13.92L345.42-13.92 345.42-6.59Q345.42-3.76 345.81-2.25L345.81-2.25Q345.91-1.9 347.1-1.59 348.3-1.27 348.79-1.27L348.79-1.27Q348.93-1.27 348.98-0.68 349.03-0.1 348.93 0.15L348.93 0.15Q344.05-0.1 343.66-0.1L343.66-0.1Q343.37-0.1 338.34 0.15L338.34 0.15Q338.14-0.05 338.14-0.66 338.14-1.27 338.34-1.27L338.34-1.27Q338.92-1.27 340.07-1.59 341.22-1.9 341.32-2.25L341.32-2.25Q341.66-3.66 341.66-5.66L341.66-5.66 341.66-14.89Q341.66-16.8 340.98-17.53L340.98-17.53Q340.49-18.12 339.78-18.33 339.07-18.55 338.61-18.55 338.14-18.55 338.14-18.65L338.14-18.65Q338.14-19.82 338.44-19.87L338.44-19.87Q343.61-20.65 345.17-21.14L345.17-21.14Q345.22-21.14 345.32-21.17 345.42-21.19 345.42-21.19L345.42-21.19Q345.61-21.19 345.66-20.78 345.71-20.36 345.66-20.17L345.66-20.17 345.37-17.72Q346.25-19.04 347.79-20.19 349.33-21.34 350.84-21.34ZM374.42-32.08L374.42-32.08Q376.22-32.08 378.91-32.32L378.91-32.32Q379.25-31.2 388.58-7.86L388.58-7.86Q388.63-7.76 388.77-7.76L388.77-7.76Q388.97-7.76 389.02-7.96L389.02-7.96Q393.8-19.19 396.63-26.46L396.63-26.46Q396.63-26.46 398.59-32.32L398.59-32.32Q401.71-32.13 402.64-32.13L402.64-32.13Q405.67-32.13 408.11-32.32L408.11-32.32Q408.26-31.88 408.26-31.59L408.26-31.59Q408.26-30.91 408.01-30.91L408.01-30.91 407.91-30.91Q407.38-30.91 406.5-30.59 405.62-30.27 405.18-29.93L405.18-29.93Q404.59-29.49 404.59-26.66L404.59-26.66Q404.59-25.88 405.03-6.84L405.03-6.84Q405.08-4.05 405.77-2.34L405.77-2.34Q405.96-1.9 407.23-1.59 408.5-1.27 409.04-1.27L409.04-1.27Q409.23-1.27 409.23-0.59L409.23-0.59Q409.23-0.15 409.13 0.15L409.13 0.15Q404.25-0.1 403.32-0.1L403.32-0.1Q403.08-0.1 397.46 0.15L397.46 0.15Q397.27-0.05 397.27-0.63L397.27-0.63Q397.27-1.27 397.46-1.27L397.46-1.27Q397.95-1.27 398.95-1.51 399.96-1.76 400.39-2L400.39-2Q400.98-2.34 400.98-4.1L400.98-4.1 400.98-6.69 400.39-23.88Q400.35-24.66 400.13-25.71 399.91-26.76 399.66-26.76L399.66-26.76Q399.56-26.76 399.42-26.42L399.42-26.42 389.21-2Q388.29 0.1 387.41 0.1L387.41 0.1Q387.26 0.1 386.97 0L386.97 0 375.79-28.42Q375.69-23.73 375.49-17.68 375.3-11.62 375.15-7.69 375-3.76 375-3.66L375-3.66Q375-2.78 375.3-2.39 375.59-2 377.08-1.64 378.57-1.27 379.06-1.27L379.06-1.27Q379.25-1.27 379.25-0.54L379.25-0.54Q379.25-0.15 379.15 0.15L379.15 0.15Q374.27-0.1 373.49-0.1L373.49-0.1Q373.39-0.1 367.78 0.15L367.78 0.15Q367.53-0.1 367.53-0.59L367.53-0.59Q367.53-1.27 367.78-1.27L367.78-1.27Q368.46-1.27 369.8-1.59 371.15-1.9 371.59-2.34L371.59-2.34Q372.37-3.22 372.46-6.59L372.46-6.59Q372.56-11.67 372.68-16.6 372.81-21.53 372.9-24.34 373-27.15 373-27.93L373-27.93Q373-29.15 372.81-29.88L372.81-29.88Q372.66-30.27 371.15-30.59 369.63-30.91 368.95-30.91L368.95-30.91Q368.75-30.91 368.75-31.59L368.75-31.59Q368.75-32.13 368.95-32.32L368.95-32.32Q369.78-32.28 370.78-32.23 371.78-32.18 372.61-32.13 373.44-32.08 374.42-32.08ZM421.68-19.48L421.68-19.48Q419.14-19.48 417.8-17.31 416.46-15.14 416.46-13.72L416.46-13.72Q416.46-13.38 416.75-13.38L416.75-13.38 426.27-13.38Q426.52-13.38 426.52-13.87L426.52-13.87Q426.52-15.43 425.2-17.46 423.88-19.48 421.68-19.48ZM422.17-21.29L422.17-21.29Q424.42-21.29 426.12-20.43 427.83-19.58 428.74-18.24 429.64-16.89 430.06-15.5 430.47-14.11 430.47-12.74L430.47-12.74Q430.47-11.77 430.18-11.55 429.88-11.33 429.05-11.33L429.05-11.33 416.75-11.33Q416.36-11.33 416.36-11.08L416.36-11.08Q416.36-8.01 418.21-5.42 420.07-2.83 423.59-2.83L423.59-2.83Q424.61-2.83 425.54-3.03 426.47-3.22 427.13-3.49 427.78-3.76 428.25-4.03 428.71-4.3 429.05-4.54L429.05-4.54 429.4-4.79Q429.69-4.79 429.69-4.15L429.69-4.15Q429.69-3.76 429.4-3.27L429.4-3.27Q428.42-1.9 426.52-0.81 424.61 0.29 422.36 0.29L422.36 0.29Q418.31 0.29 415.41-2.76 412.5-5.81 412.5-10.21L412.5-10.21Q412.5-15.33 415.26-18.31 418.02-21.29 422.17-21.29ZM447.31-21.39L447.31-21.39Q449.27-21.39 450.56-20.34 451.85-19.29 452.34-17.92L452.34-17.92Q456-21.39 459.91-21.39L459.91-21.39Q466.06-21.39 466.06-12.01L466.06-12.01 466.06-6.59Q466.06-3.76 466.45-2.25L466.45-2.25Q466.55-1.9 467.72-1.59 468.9-1.27 469.38-1.27L469.38-1.27Q469.53-1.27 469.58-0.68 469.63-0.1 469.53 0.15L469.53 0.15Q464.65-0.1 464.31-0.1L464.31-0.1Q464.01-0.1 458.98 0.15L458.98 0.15Q458.79-0.05 458.79-0.66 458.79-1.27 458.98-1.27L458.98-1.27Q459.57-1.27 460.72-1.59 461.86-1.9 461.96-2.25L461.96-2.25Q462.3-3.66 462.3-5.37L462.3-5.37 462.3-10.89Q462.3-18.41 457.37-18.41L457.37-18.41Q455.57-18.41 454.25-17.36 452.93-16.31 452.93-15.63L452.93-15.63 452.98-15.43Q452.98-15.23 452.98-15.19L452.98-15.19Q453.17-13.96 453.17-11.67L453.17-11.67 453.17-6.15Q453.17-3.76 453.56-2.25L453.56-2.25Q453.66-1.9 454.83-1.59 456-1.27 456.49-1.27L456.49-1.27Q456.64-1.27 456.69-0.68 456.74-0.1 456.64 0.15L456.64 0.15Q451.76-0.1 451.41-0.1L451.41-0.1Q451.12-0.1 446.09 0.15L446.09 0.15Q445.9-0.05 445.9-0.66 445.9-1.27 446.09-1.27L446.09-1.27Q446.68-1.27 447.83-1.59 448.97-1.9 449.07-2.25L449.07-2.25Q449.41-3.66 449.41-5.66L449.41-5.66 449.41-10.64Q449.41-18.41 444.73-18.41L444.73-18.41Q443.26-18.41 441.77-17.31 440.28-16.21 440.28-15.19L440.28-15.19 440.28-6.59Q440.28-3.76 440.67-2.25L440.67-2.25Q440.77-1.9 441.94-1.59 443.11-1.27 443.6-1.27L443.6-1.27Q443.75-1.27 443.8-0.68 443.85-0.1 443.75 0.15L443.75 0.15Q438.87-0.1 438.52-0.1L438.52-0.1Q438.23-0.1 433.2 0.15L433.2 0.15Q433.01-0.05 433.01-0.66 433.01-1.27 433.2-1.27L433.2-1.27Q433.79-1.27 434.94-1.59 436.08-1.9 436.18-2.25L436.18-2.25Q436.52-3.66 436.52-5.66L436.52-5.66 436.52-14.89Q436.52-16.8 435.84-17.53L435.84-17.53Q435.35-18.12 434.64-18.33 433.93-18.55 433.47-18.55 433.01-18.55 433.01-18.65L433.01-18.65Q433.01-19.82 433.3-19.87L433.3-19.87Q438.48-20.65 440.04-21.14L440.04-21.14Q440.09-21.14 440.18-21.17 440.28-21.19 440.28-21.19L440.28-21.19Q440.48-21.19 440.53-20.78 440.58-20.36 440.53-20.17L440.53-20.17Q440.33-18.8 440.33-18.21L440.33-18.21Q440.33-18.02 440.43-18.02L440.43-18.02Q440.48-18.02 440.58-18.12L440.58-18.12Q441.7-19.29 443.63-20.34 445.56-21.39 447.31-21.39ZM482.61-19.43L482.61-19.43Q480.03-19.43 478.39-17.07 476.75-14.7 476.75-11.28L476.75-11.28Q476.75-7.28 478.83-4.42 480.9-1.56 483.69-1.56L483.69-1.56Q486.28-1.56 487.94-4 489.6-6.45 489.6-9.86L489.6-9.86Q489.6-13.82 487.5-16.63 485.4-19.43 482.61-19.43ZM483.15-21.34L483.15-21.34Q487.55-21.34 490.67-18.16 493.8-14.99 493.8-10.55L493.8-10.55Q493.8-6.05 490.74-2.86 487.69 0.34 483.25 0.34 478.8 0.34 475.68-2.86 472.55-6.05 472.55-10.55L472.55-10.55Q472.55-15.09 475.58-18.21 478.61-21.34 483.15-21.34ZM509.95-21.34L509.95-21.34Q512.84-21.34 513.76-19.92L513.76-19.92Q513.76-18.21 513.23-17.43 512.69-16.65 511.91-16.65L511.91-16.65Q511.03-16.65 510.3-17.48 509.56-18.31 508.29-18.31L508.29-18.31Q506.78-18.31 505.66-16.89 504.53-15.48 504.53-13.92L504.53-13.92 504.53-6.59Q504.53-3.76 504.93-2.25L504.93-2.25Q505.02-1.9 506.22-1.59 507.42-1.27 507.9-1.27L507.9-1.27Q508.05-1.27 508.1-0.68 508.15-0.1 508.05 0.15L508.05 0.15Q503.17-0.1 502.78-0.1L502.78-0.1Q502.48-0.1 497.45 0.15L497.45 0.15Q497.26-0.05 497.26-0.66 497.26-1.27 497.45-1.27L497.45-1.27Q498.04-1.27 499.19-1.59 500.34-1.9 500.43-2.25L500.43-2.25Q500.78-3.66 500.78-5.66L500.78-5.66 500.78-14.89Q500.78-16.8 500.09-17.53L500.09-17.53Q499.6-18.12 498.9-18.33 498.19-18.55 497.72-18.55 497.26-18.55 497.26-18.65L497.26-18.65Q497.26-19.82 497.55-19.87L497.55-19.87Q502.73-20.65 504.29-21.14L504.29-21.14Q504.34-21.14 504.44-21.17 504.53-21.19 504.53-21.19L504.53-21.19Q504.73-21.19 504.78-20.78 504.83-20.36 504.78-20.17L504.78-20.17 504.49-17.72Q505.36-19.04 506.9-20.19 508.44-21.34 509.95-21.34ZM519.77-20.95L519.77-20.95Q520.6-20.95 521.3-21 522.01-21.04 522.92-21.09 523.82-21.14 524.5-21.19L524.5-21.19Q524.6-20.9 524.6-20.46L524.6-20.46Q524.6-19.78 524.41-19.78L524.41-19.78Q524.01-19.78 523.11-19.43 522.21-19.09 522.11-18.75L522.11-18.75 522.11-18.65Q522.11-17.77 527.34-5.91L527.34-5.91 531.05-16.6Q531.39-17.63 531.39-18.12L531.39-18.12Q531.39-18.85 530.63-19.31 529.87-19.78 528.6-19.78L528.6-19.78Q528.41-19.78 528.41-20.41L528.41-20.41Q528.41-21 528.6-21.19L528.6-21.19Q529.24-21.14 530.51-21.04 531.78-20.95 532.95-20.95L532.95-20.95Q534.02-20.95 535.29-21.04 536.56-21.14 537.2-21.19L537.2-21.19Q537.3-20.9 537.3-20.46L537.3-20.46Q537.3-19.78 537.1-19.78L537.1-19.78Q536.47-19.78 535.37-19.34 534.27-18.9 533.93-17.92L533.93-17.92 525.19 5.66Q524.06 8.69 522.65 9.89 521.23 11.08 520.06 11.08L520.06 11.08Q519.03 11.08 518.55 10.45 518.06 9.81 518.06 9.18L518.06 9.18Q518.06 8.11 518.74 7.62L518.74 7.62Q522.79 7.62 524.11 3.42L524.11 3.42Q524.36 2.69 524.7 1.66 525.04 0.63 525.24 0L525.24 0 518.25-17.09Q517.72-18.26 517.28-18.75L517.28-18.75Q516.84-19.19 515.93-19.48 515.03-19.78 514.49-19.78L514.49-19.78Q514.3-19.78 514.3-20.41L514.3-20.41Q514.3-21 514.49-21.19L514.49-21.19Q519.52-20.95 519.77-20.95Z" opacity="1" transform="matrix(1,0,0,1,0,0)" fill="#ffffff" class="undefined-text-1" data-fill-palette-color="secondary" id="text-1"></path></svg></g></svg></g></svg></g></svg></g><g transform="matrix(1,0,0,1,36.672,0)"><svg viewBox="0 0 118.656 72.92077214410895" height="72.92077214410895" width="118.656"><g><svg xmlns="http://www.w3.org/2000/svg" data-name="Layer 1" viewBox="2.4305503368377686 20.79172134399414 95.13905334472656 58.46828842163086" x="0" y="0" height="72.92077214410895" width="118.656" class="icon-icon-0" data-fill-palette-color="accent" id="icon-0"><path d="M62.78 23l32 55.42 1.3-2.26h-64l1.3 2.26L65.37 23a1.5 1.5 0 0 0-2.59-1.51L30.79 77a1.51 1.51 0 0 0 1.3 2.26h64A1.51 1.51 0 0 0 97.37 77l-32-55.42A1.5 1.5 0 0 0 62.78 23Z" fill="#ffffff" data-fill-palette-color="accent"></path><path d="M34.63 23l32 55.42 1.3-2.26h-64l1.3 2.26L37.22 23a1.5 1.5 0 0 0-2.59-1.51L2.63 77a1.51 1.51 0 0 0 1.3 2.26h64A1.51 1.51 0 0 0 69.21 77l-32-55.42A1.5 1.5 0 0 0 34.63 23Z" fill="#ffffff" data-fill-palette-color="accent"></path></svg></g></svg></g><g></g></svg></g></svg></g></svg></g></svg></g></svg><rect width="320" height="360" fill="none" stroke="none" visibility="hidden"></rect></g><defs></defs></svg>